# xmcd
#
# Track frame offsets:
# 150
# 14582
# 30910
# 32050
# 50952
# 52920
# 64287
# 65527
# 76655
# 77692
# 95587
# 98079
# 117305
# 130505
# 131460
# 140277
# 142187
# 156162
# 162542
# 173930
# 175997
# 185842
# 187140
# 195135
#
# Disc length: 2985 seconds
#
#
# Revision: 2
# Processed by: cddbd v1.5.2PL0 Copyright (c) Steve Scherf et al.
# Submitted via: FreeRIP 2.70 
#
DISCID=510ba718
DTITLE=Jorge Moisés - 100 KM de Emoção
DYEAR=1900
DGENRE=Country
TTITLE0=Pedágio - De São Paulo a Rio Preto
TTITLE1=Rodeio de Americana
TTITLE2=Locução
TTITLE3=Barreto Bão
TTITLE4=Locução2
TTITLE5=100Km de Saudade
TTITLE6=Locução3
TTITLE7=Morena Gostosa
TTITLE8=Locução4
TTITLE9=Segura Peão
TTITLE10=Locução5
TTITLE11=Boiadeiro sem Boiada
TTITLE12=Locução6/Casa Bagunçada
TTITLE13=Locução7
TTITLE14=Porteiro de Motel
TTITLE15=Locução8
TTITLE16=Se minha Mãe não tivesse me tido
TTITLE17=Locução9
TTITLE18=Boizinho Espaia Merda
TTITLE19=Locução10
TTITLE20=Dona Maria solta meu Pinto
TTITLE21=Locução11
TTITLE22=Larga dessa Muié, Larga
TTITLE23=Burro Advogado, Poema
EXTD=
EXTT0=
EXTT1=
EXTT2=
EXTT3=
EXTT4=
EXTT5=
EXTT6=
EXTT7=
EXTT8=
EXTT9=
EXTT10=
EXTT11=
EXTT12=
EXTT13=
EXTT14=
EXTT15=
EXTT16=
EXTT17=
EXTT18=
EXTT19=
EXTT20=
EXTT21=
EXTT22=
EXTT23=
PLAYORDER=
